<svg width="43" height="54" viewBox="0 0 43 54" fill="none" xmlns="http://www.w3.org/2000/svg">
<g clip-path="url(#clip0_30_263)">
<path d="M35.649 37.5762C36.6273 37.5762 37.4217 36.7781 37.4217 35.7953C37.4217 34.8125 36.6273 34.0144 35.649 34.0144C34.6708 34.0144 33.8764 34.8125 33.8764 35.7953C33.8764 36.7781 34.6708 37.5762 35.649 37.5762ZM35.649 39.3762C33.6813 39.3762 32.0847 37.7723 32.0847 35.7953C32.0847 33.8184 33.6813 32.2144 35.649 32.2144C37.6168 32.2144 39.2133 33.8184 39.2133 35.7953C39.2133 37.7723 37.6168 39.3762 35.649 39.3762ZM16.0801 37.5762C17.0584 37.5762 17.8528 36.7781 17.8528 35.7953C17.8528 34.8125 17.0584 34.0144 16.0801 34.0144C15.1019 34.0144 14.3075 34.8125 14.3075 35.7953C14.3075 36.7781 15.1019 37.5762 16.0801 37.5762ZM16.0801 39.3762C14.1124 39.3762 12.5158 37.7723 12.5158 35.7953C12.5158 33.8184 14.1124 32.2144 16.0801 32.2144C18.0479 32.2144 19.6445 33.8184 19.6445 35.7953C19.6445 37.7723 18.0479 39.3762 16.0801 39.3762ZM40.0226 10.78H15.1906C14.6959 10.78 14.2948 10.3771 14.2948 9.88C14.2948 9.38295 14.6959 8.98 15.1906 8.98H41.2084C41.803 8.98 42.2326 9.55131 42.0701 10.1259L37.0044 28.0412C36.6209 29.3972 35.258 30.4399 33.8695 30.4399H16.9704C15.6053 30.4399 14.21 29.4299 13.7778 28.1259L7.46524 9.08086C6.93132 7.47003 5.10589 5.64593 3.4888 5.11007L1.51109 4.4547C1.04124 4.299 0.785979 3.79012 0.940957 3.31808C1.09593 2.84604 1.60246 2.58959 2.07232 2.74529L4.05002 3.40065C6.20395 4.11441 8.4521 6.36092 9.16514 8.51218L15.4777 27.5572C15.6661 28.1257 16.3764 28.6399 16.9704 28.6399H33.8695C34.4543 28.6399 35.1156 28.134 35.2809 27.5493L40.0226 10.78Z" fill="white"/>
</g>
<defs>
<clipPath id="clip0_30_263">
<rect width="43" height="54" fill="white"/>
</clipPath>
</defs>
</svg>
