<svg width="23" height="20" viewBox="0 0 23 20" fill="none" xmlns="http://www.w3.org/2000/svg">
<g id="Group">
<path id="Vector" d="M19.3969 19.0184C19.9429 19.0184 20.3862 18.5832 20.3862 18.0473C20.3862 17.5114 19.9429 17.0762 19.3969 17.0762C18.8509 17.0762 18.4075 17.5114 18.4075 18.0473C18.4075 18.5832 18.8509 19.0184 19.3969 19.0184ZM19.3969 20C18.2986 20 17.4075 19.1253 17.4075 18.0473C17.4075 16.9693 18.2986 16.0946 19.3969 16.0946C20.4951 16.0946 21.3862 16.9693 21.3862 18.0473C21.3862 19.1253 20.4951 20 19.3969 20ZM8.47491 19.0184C9.0209 19.0184 9.46428 18.5832 9.46428 18.0473C9.46428 17.5114 9.0209 17.0762 8.47491 17.0762C7.92892 17.0762 7.48554 17.5114 7.48554 18.0473C7.48554 18.5832 7.92892 19.0184 8.47491 19.0184ZM8.47491 20C7.37665 20 6.48556 19.1253 6.48556 18.0473C6.48556 16.9693 7.37665 16.0946 8.47491 16.0946C9.57317 16.0946 10.4643 16.9693 10.4643 18.0473C10.4643 19.1253 9.57317 20 8.47491 20ZM21.8379 4.40623H7.97846C7.70232 4.40623 7.47847 4.1865 7.47847 3.91545C7.47847 3.6444 7.70232 3.42467 7.97846 3.42467H22.4997C22.8316 3.42467 23.0714 3.73621 22.9807 4.04956L20.1533 13.8189C19.9393 14.5584 19.1787 15.1269 18.4037 15.1269H8.97181C8.20988 15.1269 7.43113 14.5762 7.18989 13.8651L3.66669 3.47967C3.36869 2.60127 2.34987 1.60658 1.44732 1.31436L0.343508 0.956989C0.081268 0.872085 -0.0611994 0.594587 0.0252982 0.337179C0.111796 0.0797705 0.394504 -0.0600718 0.656744 0.024832L1.76056 0.382207C2.96272 0.771425 4.21748 1.99646 4.61545 3.16956L8.13865 13.555C8.24383 13.865 8.64028 14.1454 8.97181 14.1454H18.4037C18.7301 14.1454 19.0991 13.8695 19.1914 13.5507L21.8379 4.40623Z" fill="black"/>
</g>
</svg>
